<?xml version="1.0" encoding="UTF-8"?>
<svg width="256" height="256" viewBox="0 0 128 128" fill="none" xmlns="http://www.w3.org/2000/svg" role="img" aria-labelledby="title desc">
  <title id="title">Coastal Keys icon</title>
  <desc id="desc">A stylized key with a sun and wave.</desc>

  <!-- Background for app icon safety -->
  <rect width="128" height="128" rx="24" fill="#EAF2F0"/>

  <!-- Key body -->
  <g transform="translate(10,18)">
    <rect x="54" y="44" width="60" height="10" rx="5" fill="#0F3D4C"/>
    <rect x="95" y="54" width="12" height="12" rx="2" fill="#0F3D4C"/>
    <rect x="110" y="54" width="6" height="9" rx="2" fill="#0F3D4C"/>

    <circle cx="42" cy="49" r="28" fill="#6D98A5"/>
    <circle cx="42" cy="49" r="24" fill="#BFD3CE"/>

    <circle cx="42" cy="44" r="9" fill="#FDB813"/>

    <path d="M20 56c5 0 8-4 13-4s8 4 13 4 8-4 13-4 8 4 13 4v8H20v-8z" fill="#6D98A5" opacity="0.95"/>
    <path d="M52 34c-5 0-9 3-11 7" stroke="#FFFFFF" stroke-opacity="0.5" stroke-width="2" stroke-linecap="round"/>
  </g>
</svg>
